<svg id="visual" viewBox="0 0 900 100" width="900" height="100" xmlns="http://www.w3.org/2000/svg" xmlns:xlink="http://www.w3.org/1999/xlink" version="1.1"><rect x="0" y="0" width="900" height="100" fill="#f2f2f2"></rect><path d="M0 17L11.5 19C23 21 46 25 69 24.7C92 24.3 115 19.7 138.2 21.8C161.3 24 184.7 33 207.8 37.7C231 42.3 254 42.7 277 41C300 39.3 323 35.7 346 30.8C369 26 392 20 415.2 18.8C438.3 17.7 461.7 21.3 484.8 23.2C508 25 531 25 554 28C577 31 600 37 623 39C646 41 669 39 692.2 34.8C715.3 30.7 738.7 24.3 761.8 21.7C785 19 808 20 831 21.2C854 22.3 877 23.7 888.5 24.3L900 25L900 101L888.5 101C877 101 854 101 831 101C808 101 785 101 761.8 101C738.7 101 715.3 101 692.2 101C669 101 646 101 623 101C600 101 577 101 554 101C531 101 508 101 484.8 101C461.7 101 438.3 101 415.2 101C392 101 369 101 346 101C323 101 300 101 277 101C254 101 231 101 207.8 101C184.7 101 161.3 101 138.2 101C115 101 92 101 69 101C46 101 23 101 11.5 101L0 101Z" fill="#a2d437"></path><path d="M0 36L11.5 36.2C23 36.3 46 36.7 69 36.5C92 36.3 115 35.7 138.2 38C161.3 40.3 184.7 45.7 207.8 48.5C231 51.3 254 51.7 277 51C300 50.3 323 48.7 346 47.7C369 46.7 392 46.3 415.2 47.5C438.3 48.7 461.7 51.3 484.8 51.2C508 51 531 48 554 44C577 40 600 35 623 34.5C646 34 669 38 692.2 39C715.3 40 738.7 38 761.8 36.8C785 35.7 808 35.3 831 37.5C854 39.7 877 44.3 888.5 46.7L900 49L900 101L888.5 101C877 101 854 101 831 101C808 101 785 101 761.8 101C738.7 101 715.3 101 692.2 101C669 101 646 101 623 101C600 101 577 101 554 101C531 101 508 101 484.8 101C461.7 101 438.3 101 415.2 101C392 101 369 101 346 101C323 101 300 101 277 101C254 101 231 101 207.8 101C184.7 101 161.3 101 138.2 101C115 101 92 101 69 101C46 101 23 101 11.5 101L0 101Z" fill="#8ac241"></path><path d="M0 54L11.5 53.3C23 52.7 46 51.3 69 52.2C92 53 115 56 138.2 57.3C161.3 58.7 184.7 58.3 207.8 58.5C231 58.7 254 59.3 277 58C300 56.7 323 53.3 346 52.8C369 52.3 392 54.7 415.2 55C438.3 55.3 461.7 53.7 484.8 52.2C508 50.7 531 49.3 554 48.8C577 48.3 600 48.7 623 48.3C646 48 669 47 692.2 46.3C715.3 45.7 738.7 45.3 761.8 48.3C785 51.3 808 57.7 831 60.5C854 63.3 877 62.7 888.5 62.3L900 62L900 101L888.5 101C877 101 854 101 831 101C808 101 785 101 761.8 101C738.7 101 715.3 101 692.2 101C669 101 646 101 623 101C600 101 577 101 554 101C531 101 508 101 484.8 101C461.7 101 438.3 101 415.2 101C392 101 369 101 346 101C323 101 300 101 277 101C254 101 231 101 207.8 101C184.7 101 161.3 101 138.2 101C115 101 92 101 69 101C46 101 23 101 11.5 101L0 101Z" fill="#75b047"></path><path d="M0 77L11.5 74.2C23 71.3 46 65.7 69 63C92 60.3 115 60.7 138.2 63.3C161.3 66 184.7 71 207.8 71.7C231 72.3 254 68.7 277 66.7C300 64.7 323 64.3 346 64.2C369 64 392 64 415.2 64.3C438.3 64.7 461.7 65.3 484.8 67.5C508 69.7 531 73.3 554 74C577 74.7 600 72.3 623 72.3C646 72.3 669 74.7 692.2 74.8C715.3 75 738.7 73 761.8 72.8C785 72.7 808 74.3 831 74.7C854 75 877 74 888.5 73.5L900 73L900 101L888.5 101C877 101 854 101 831 101C808 101 785 101 761.8 101C738.7 101 715.3 101 692.2 101C669 101 646 101 623 101C600 101 577 101 554 101C531 101 508 101 484.8 101C461.7 101 438.3 101 415.2 101C392 101 369 101 346 101C323 101 300 101 277 101C254 101 231 101 207.8 101C184.7 101 161.3 101 138.2 101C115 101 92 101 69 101C46 101 23 101 11.5 101L0 101Z" fill="#639e4b"></path><path d="M0 83L11.5 83.5C23 84 46 85 69 85.2C92 85.3 115 84.7 138.2 84.7C161.3 84.7 184.7 85.3 207.8 85.7C231 86 254 86 277 84.5C300 83 323 80 346 78.5C369 77 392 77 415.2 78C438.3 79 461.7 81 484.8 81.5C508 82 531 81 554 79.5C577 78 600 76 623 75.5C646 75 669 76 692.2 76.2C715.3 76.3 738.7 75.7 761.8 75.3C785 75 808 75 831 77.2C854 79.3 877 83.7 888.5 85.8L900 88L900 101L888.5 101C877 101 854 101 831 101C808 101 785 101 761.8 101C738.7 101 715.3 101 692.2 101C669 101 646 101 623 101C600 101 577 101 554 101C531 101 508 101 484.8 101C461.7 101 438.3 101 415.2 101C392 101 369 101 346 101C323 101 300 101 277 101C254 101 231 101 207.8 101C184.7 101 161.3 101 138.2 101C115 101 92 101 69 101C46 101 23 101 11.5 101L0 101Z" fill="#558c4c"></path></svg>